<?xml version="1.0" encoding="UTF-8"?>
<!DOCTYPE svg PUBLIC "-//W3C//DTD SVG 1.1//EN" "http://www.w3.org/Graphics/SVG/1.1/DTD/svg11.dtd">
<!-- Creator: CorelDRAW -->
<svg xmlns="http://www.w3.org/2000/svg" xml:space="preserve" width="135.467mm" height="31.7498mm" version="1.1" style="shape-rendering:geometricPrecision; text-rendering:geometricPrecision; image-rendering:optimizeQuality; fill-rule:evenodd; clip-rule:evenodd"
viewBox="0 0 13546.66 3174.98"
 xmlns:xlink="http://www.w3.org/1999/xlink"
 xmlns:xodm="http://www.corel.com/coreldraw/odm/2003">
 <defs>
  <style type="text/css">
   <![CDATA[
    .fil0 {fill:#00AFEF}
    .fil1 {fill:#FEFEFE}
    .fil2 {fill:#FFCC29}
   ]]>
  </style>
 </defs>
 <g id="Camada_x0020_1">
  <metadata id="CorelCorpID_0Corel-Layer"/>
  <path class="fil0" d="M158.74 2530.25l0.55 -1690.77c0,-460.92 300.31,-733.18 762.33,-732.63l1316.76 2.2c400.41,0.55 766.18,165.55 949.34,530.77 170.5,339.36 138.6,689.18 -46.75,976.84 103.4,110.56 151.25,264.56 153.45,419.67l0.55 485.12c0.55,366.32 -266.76,569.28 -623.72,569.28l-214.51 0 -872.34 0 -858.04 0c-338.81,0 -567.62,-200.21 -567.62,-560.48z"/>
  <path class="fil1" d="M2264.78 1021.54l-309.12 497.77 271.72 0.55c73.7,-0.55 112.2,77.55 63.8,143.55l-1041.75 1431.17 -200.75 0 972.44 -1369.01c17.05,-26.95 2.75,-37.41 -24.2,-37.41l-336.62 0 365.77 -637.47 -511.52 0 -358.07 805.23c-7.7,16.5 -11,34.65 17.6,35.2l341.57 0 -438.37 952.65 -256.31 0 -106.71 0c-180.96,0 -286.56,-113.31 -286.56,-301.42l0.55 -1708.92c-1.1,-307.47 184.26,-479.62 497.22,-479.07l1321.16 1.65c738.68,-3.85 897.09,663.33 699.63,1074.74 -41.8,88.01 -95.16,160.06 -154.56,236.51 167.76,84.71 231.56,227.71 233.76,383.37l0.55 482.37c0,166.66 -103.95,310.77 -356.41,310.77l-1043.4 0 141.91 -206.26 895.98 0c86.91,-4.4 149.06,-52.81 143.56,-155.11l2.2 -399.32c-2.2,-255.76 -222.21,-315.16 -387.77,-319.56l170.51 -176.01c70.4,-72.6 142.46,-185.36 175.46,-278.86 110.55,-311.32 24.75,-759.59 -519.22,-758.49l-1321.16 2.76c-168.86,3.3 -296.46,89.65 -296.46,283.26l0 1660.52c1.65,84.7 46.2,139.16 144.65,140.81l198.56 0 248.61 -563.78 -192.51 0c-80.85,0 -123.2,-75.35 -94.6,-145.2l5.5 -13.21 385.57 -953.19c35.2,-74.8 93.5,-103.4 165,-104.5l661.68 -2.2c100.11,-0.55 157.86,69.85 111.11,166.11z"/>
  <path class="fil2" d="M2013.42 1073.24l-0.55 0.55 -352.57 614.37 11 0 0 0 325.62 0c26.95,0 41.25,10.46 24.2,37.41l-972.44 1369.01 -92.41 0 121.01 -250.81 438.37 -952.65 0 0 -341.57 0c-4.95,0 -8.8,-0.55 -12.1,-1.65l0 0 0 0 -0.55 0 0 -0.55 0 0 -0.55 0 0 0 -0.55 0 0 0 -1.65 -1.1 0 0 0 0c-11.55,-6.05 -8.25,-19.25 -2.2,-31.9l341.01 -767.28 17.06 -37.95 511.52 0 -12.65 22.55z"/>
  <path class="fil1" d="M12926.99 1634.26c0,-278.86 -189.76,-384.46 -443.87,-384.46l-483.47 0.55c-122.66,-2.2 -205.71,-53.35 -210.66,-171.06l0 -178.76 799.73 0c409.77,0 799.19,185.36 799.19,658.93l0 857.49 -459.82 0 -1.1 -782.69z"/>
  <path class="fil1" d="M10754.39 885.13c504.92,0 914.69,342.12 914.69,776.63 0,434.52 -409.77,776.09 -914.69,776.09 -504.92,0 -914.14,-341.57 -914.14,-776.09 0,-434.51 409.22,-776.63 914.14,-776.63zm0 364.67c257.96,0 467.52,184.81 467.52,411.96 0,227.16 -209.56,411.42 -467.52,411.42 -257.96,0 -466.97,-184.26 -466.97,-411.42 0,-227.15 209.01,-411.96 466.97,-411.96z"/>
  <path class="fil1" d="M8589.5 2066.58l231.56 0c282.71,4.95 455.97,-133.66 455.97,-397.67 0,-251.9 -187.56,-419.11 -447.72,-418.01 -166.11,0 -331.67,0 -497.77,0 -122.66,-2.2 -197.46,-70.41 -201.86,-188.66l0 -161.71c266.21,0 532.42,0 798.63,0 427.92,0 798.09,294.82 798.09,754.63 0,495.02 -340.47,761.79 -789.29,761.79l-807.43 0 0 -1008.19 256.31 0c123.75,1.1 199.66,70.4 203.51,190.3l0 467.52z"/>
  <path class="fil1" d="M6759.02 1998.93c0,-280.52 0,-620.43 0,-900.94l0 0c0,-122.65 77.01,-195.26 202.41,-197.46l257.41 0 0 14.85c0,323.42 0,644.08 0,967.49 0,140.81 77.01,171.06 212.31,171.06l469.72 0 0 363.02 -635.28 0c-293.71,0 -491.17,-112.21 -506.57,-416.37l0 -1.65z"/>
  <path class="fil1" d="M6525.81 2416.95c-154.01,0 -300.31,0 -454.87,0l0 -1003.24 454.87 0c0,324.5 0,678.72 0,1003.24z"/>
  <path class="fil1" d="M4241.56 2416.95l0 -1233.16c0,-203.5 117.16,-289.86 294.27,-289.31l718.32 0c658.93,0.55 751.89,661.13 343.77,903.14 124.86,32.45 242.56,128.15 244.21,319.56l0 299.77 -457.07 0 -1.65 -259.62c-2.2,-163.35 -125.96,-201.86 -232.66,-204.61l-223.31 0 0 -350.91 228.81 0c149.61,0 226.06,-60.5 226.61,-176 0.55,-127.61 -100.65,-176.01 -226.61,-176.01l-347.62 0c-75.9,2.2 -105.05,36.3 -105.05,101.75l-2.75 1065.4 -459.27 0z"/>
  <path class="fil1" d="M12245.51 2416.95l-456.52 0 0.55 -1013.7 253.01 0c123.75,1.1 204.06,68.76 203.51,190.31l-0.55 823.39z"/>
  <path class="fil2" d="M6525.81 1249.25l-454.87 0 0 -348.17 267.31 0c117.16,3.85 179.86,67.1 187.56,179.86l0 0.55 0 167.76z"/>
  <path class="fil1" d="M11664.68 2638.61l90.21 0 217.25 0 0 64.9 -217.25 0 0 57.75 174.9 0 0 63.8 -174.9 0 0 31.36c-0.56,18.7 8.8,25.3 22,25.3l194.7 0 0 64.9c-31.9,0 -238.71,-0.55 -249.16,-2.2 -36.85,-3.85 -57.75,-25.85 -57.75,-56.65l0 -249.16 0 0zm-2618.66 0l90.2 0 217.26 0 0 64.9 -217.26 0 0 57.75 174.91 0 0 63.8 -174.91 0 0 31.36c-0.55,18.7 8.8,25.3 22,25.3l194.16 0 0 64.9c-31.35,0 -238.16,-0.55 -249.16,-2.2 -36.3,-3.85 -57.75,-25.85 -57.2,-56.65l0 -249.16 0 0zm1812.33 154.55c0,-21.45 -4.95,-42.9 -14.3,-62.15 -9.9,-20.35 -23.66,-37.4 -41.26,-52.25 -18.15,-15.4 -39.05,-27.5 -62.15,-35.2 -23.65,-8.8 -55,-12.65 -80.85,-12.65 -25.3,0 -57.2,3.85 -80.86,12.65 -23.1,7.7 -43.45,19.8 -61.6,35.2 -17.6,14.85 -31.9,31.9 -41.8,52.25 -9.35,19.8 -14.3,40.7 -14.3,62.15 0,21.45 4.95,42.36 14.3,62.16 9.9,20.35 24.2,37.4 41.8,52.25 18.15,15.4 38.5,27.5 61.6,35.2 23.66,8.8 55.56,12.65 80.86,12.65 25.3,0 56.65,-3.85 80.85,-12.65 23.1,-8.25 44,-19.8 62.15,-35.2 17.6,-14.85 31.36,-31.9 41.26,-52.25 9.35,-19.8 14.3,-40.71 14.3,-62.16zm427.91 -89.1c-13.2,0 -22.55,6.6 -22,25.3l0 4.95 0 212.31 -90.2 0 0 -248.61c0,-30.8 21.45,-52.8 57.75,-57.2 9.35,-1.1 31.35,-1.65 57.21,-1.65l105.05 -0.55c155.11,0 154.01,199.66 6.6,199.66l-86.9 0 0 -58.86 63.8 0c27.5,0 50.6,-11.55 50.6,-36.85 0,-29.7 -22,-38.5 -51.15,-38.5 -30.25,0 -60.5,0 -90.76,0zm-626.47 188.11c-28.05,0 -61.05,-8.8 -80.86,-28.05 -19.8,-19.8 -28.05,-44.56 -28.05,-70.96 0,-26.95 8.25,-51.15 28.6,-70.4 19.81,-19.25 52.26,-28.6 80.31,-28.6 28.05,0 60.5,9.35 80.3,28.6 19.8,19.8 29.15,43.45 29.15,70.4 0,26.95 -8.8,51.16 -29.15,70.41 -19.8,19.25 -52.25,28.6 -80.3,28.6zm-1030.2 54.45l89.11 0 0 -243.11 124.85 0 0 -65.45 -338.81 0 0 65.45 124.85 0 0 243.11zm-1037.89 0l298.66 0 0 -63.8 -209.56 0 0 -244.76 -89.1 0 0 308.56zm4512.94 -82.5l-42.9 48.4c21.45,13.75 44.55,24.75 69.85,31.9 28.06,7.7 57.21,11 86.36,11 43.45,0 89.1,-7.15 125.95,-30.25 25.3,-15.4 42.36,-40.7 42.91,-69.3 0.55,-44.01 -37.41,-72.06 -80.31,-84.16 -34.1,-9.35 -70.4,-11.55 -105.05,-19.25 -13.2,-2.75 -28.6,-8.25 -34.65,-20.9 -7.15,-14.3 -1.1,-29.7 13.75,-37.4 37.95,-19.8 112.75,-4.95 151.25,15.4l34.1 -53.35c-18.7,-8.25 -38.5,-14.85 -58.85,-18.7 -23.1,-4.95 -47.3,-7.15 -70.95,-7.15 -39.6,0 -79.75,7.15 -112.21,28.05 -26.4,17.05 -41.8,40.15 -41.8,70.4 0,20.9 7.7,38.5 25.85,51.7 23.65,17.05 64.91,26.4 94.06,31.9 16.5,2.75 68.75,11 81.4,18.16 11,7.15 16.5,17.05 16.5,29.15 0,64.9 -154.56,42.35 -195.26,4.4zm-657.83 -200.76c-58.3,-34.65 -145.75,-46.2 -215.05,-21.45 -21.46,7.15 -40.71,18.7 -57.21,33.55 -17.05,14.85 -30.8,32.45 -40.15,52.8 -9.35,20.35 -13.2,42.35 -13.2,64.35 0,28.05 6.6,55.01 20.9,79.76 14.3,24.2 35.75,43.45 61.05,58.3 13.75,8.25 29.16,14.3 45.11,18.15 62.15,14.85 147.4,4.95 194.7,-26.4l-30.8 -56.1c-29.7,28.05 -124.85,48.95 -172.7,-4.95 -19.81,-18.15 -29.16,-41.26 -29.16,-67.11 0,-26.4 8.25,-50.6 28.61,-69.85 37.4,-43.45 131.45,-36.3 174.9,-3.3l33 -57.75zm-210.65 318.46l0 26.4 127.05 0 0 -26.4 -127.05 0zm-4102.63 -343.21l89.65 0 217.26 0 0 64.9 -217.26 0 0 57.75 174.91 0 0 63.8 -174.91 0 0 31.36c-0.55,18.7 8.8,25.3 22,25.3l194.71 0 0 64.9c-31.9,0 -238.16,-0.55 -249.16,-2.2 -36.3,-3.85 -57.75,-25.85 -57.75,-56.65l0 -249.16 0.55 0zm1871.18 308.01l0 -248.61c-0.55,-30.8 20.9,-52.8 57.2,-57.2 27.5,-2.75 160.61,-2.75 188.66,-0.55 105.6,8.8 118.26,143 30.25,171.6 36.85,7.15 58.3,29.71 58.3,64.91l0.55 69.85 -89.65 0 0 -72.6c-2.2,-35.75 -33.55,-35.2 -47.3,-35.75l-54.45 -0.55 0 -58.31 58.3 0c28.6,0.55 42.9,-16.5 43.45,-37.4 0.55,-23.1 -16.5,-37.4 -42.35,-37.95l-90.76 0c-13.75,0 -22.55,6.6 -22.55,25.3l0 217.26 -89.65 0zm2776.52 -242.56l-138.61 242.56 -103.4 0 183.71 -308.01 105.05 0c77.55,0 102.31,42.9 102.86,92.95l0 0 0 215.06 -90.21 0 0 -79.2 -110.55 0 33 -58.31 77.55 0 0 -68.75 0 0c-0.55,-28.05 -14.85,-36.3 -44,-36.3l-15.4 0z"/>
 </g>
</svg>
